<svg id="Layer_2" xmlns="http://www.w3.org/2000/svg" viewBox="-625 383.1 28.3 32.7"><style>.st0{fill:#161616}</style><path class="st0" d="M-615.3 399.4l3-2.4c-3.8-2.7-7.1-6.1-8.7-10.5 1.8.5 3.5 1 5.2 1.6 1.3-.9 2.5-1.8 3.8-2.7-4.1-1.9-8.6-2.3-13-2.2v1.2c.5 6.4 5.5 10.8 9.7 15z"/><path class="st0" d="M-614.1 394.1c3.5-3 7.3-6 11.9-7-.5 1.3-1 2.7-1.5 4 1.1.8 2.3 1.7 3.4 2.6 2.1-2.9 3.1-6.3 3.1-9.8-2.9 0-5.9-.2-8.9.2-4.4 1.1-7.8 4.3-11.2 7 1 .9 2.1 1.9 3.2 3z"/><path class="st0" d="M-600.9 405.7c1.8-1.9 3.8-4.2 3-6.9-1.2-3.9-5.3-6.4-8.5-9-1.2.6-2.3.9-3.5 1.5 2.7 2 6.3 4.1 7.6 7.1.6 1.6-1.2 2.8-1.5 4.3.8.9 2 2.1 2.9 3zm-15.1 4.7c1.5-.9 2.9-1.8 4.3-2.7-2.8-2.2-5.9-4.2-8.2-7 .2-1.2.6-2.5.9-3.7l-2.7-2.7c-1.3 1.7-2.4 3.6-3.3 5.5 1.9 4.4 5.5 7.6 9 10.6z"/><path class="st0" d="M-614 404.6c2.9-2.3 6-4.6 9.2-6.7-1.2-.9-2.3-1.9-3.4-2.8-2.9 2.3-5.8 4.7-8.8 6.8.9.9 1.9 1.8 3 2.7zm6.9-4c-1.2.9-2.4 1.7-3.6 2.6 3.7 2.5 7.3 5.5 9.1 9.6-1.6-.4-3.2-.8-4.8-1.3-1.1.8-2.3 1.5-3.4 2.3 3.9 2.3 8.4 2.1 12.7 1.9 0-6.8-6-10.6-10-15.1z"/><path class="st0" d="M-608.2 406.5c-3.7 2.8-7.5 6.8-12.6 5.8.6-1.3 1.2-2.5 1.9-3.8-1.1-.6-2.2-1.4-3.6-1.6-2 2.6-1.4 5.9-1.4 8.9 3-.1 6 .3 8.9-.3 3.8-1.2 6.8-3.9 10-6.2-1.1-1-2.2-1.9-3.2-2.8z"/></svg>